PathFileType	3	(X/Y/Z)	D:\Jess\Healthy\Labelled\HA13\20250417\SRRun01.trc
DataRate	CameraRate	NumFrames	NumMarkers	Units	OrigDataRate	OrigDataStartFrame	OrigNumFrames
250.0	250.0	4	37	mm	250.0	36563	2501
Frame#	Time	C7			T10			CLAV			LSHO			RSHO			LASIS			RASIS			LPSIS			RPSIS			LILCR			RILCR			LGTR			LTHI			LLTHI			LLEP			LMEP			LPSH			LLSH			LDSH			LLMAL			LMMAL			LTOE			L5TH			LHEE			RGTR			RTHI			RLTHI			RLEP			RMEP			RPSH			RLSH			RDSH			RLMAL			RMMAL			RTOE			R5TH			RHEE			
		X1	Y1	Z1	X2	Y2	Z2	X3	Y3	Z3	X4	Y4	Z4	X5	Y5	Z5	X6	Y6	Z6	X7	Y7	Z7	X8	Y8	Z8	X9	Y9	Z9	X10	Y10	Z10	X11	Y11	Z11	X12	Y12	Z12	X13	Y13	Z13	X14	Y14	Z14	X15	Y15	Z15	X16	Y16	Z16	X17	Y17	Z17	X18	Y18	Z18	X19	Y19	Z19	X20	Y20	Z20	X21	Y21	Z21	X22	Y22	Z22	X23	Y23	Z23	X24	Y24	Z24	X25	Y25	Z25	X26	Y26	Z26	X27	Y27	Z27	X28	Y28	Z28	X29	Y29	Z29	X30	Y30	Z30	X31	Y31	Z31	X32	Y32	Z32	X33	Y33	Z33	X34	Y34	Z34	X35	Y35	Z35	X36	Y36	Z36	X37	Y37	Z37	

1564	146.248	941.8482240370217	1601.171273257195	-311.0898558495171	862.4762780026006	1348.545718295698	-311.182528435375	1086.586393351191	1497.313919720775	-325.9637821714106	989.7090068273176	1581.051127659019	-467.4638904009272	1004.571117620373	1585.7844265287	-174.8478480531042	1050.947070379417	1070.915516677378	-414.008849691556	1032.349851893585	1061.761548096072	-206.3765989392432	861.2349041971324	1117.531887500245	-348.149185110147	862.3782988942198	1112.474298173411	-304.7636235505335	996.06454667959	1148.776631368863	-475.3762061185136	985.2908019232451	1135.929103108786	-163.6504472738181	1032.550158271247	908.5844100638858	-494.702617743265	1130.233751173534	820.5437243202877	-427.4015959110605	1065.680289580535	709.2794863932164	-473.7713462563969	1108.638911563623	584.920592325188	-453.7722168519626	nan	nan	nan	1180.225972546353	479.4165765399378	-398.7707172030921	1116.153814987155	341.5898387678843	-445.6372660220356	1184.927554800309	248.5163971582368	-379.4088841809055	1148.09433467695	143.5480840135903	-398.7783185480217	nan	nan	nan	1300.920496115067	91.55148080067914	-365.0455827347617	1268.083378533111	51.23701157635854	-397.4151623289173	1081.602840857033	99.55471083381327	-337.3047675620925	944.9301948761314	891.7061543583494	-148.6096621495539	1013.047567825827	758.2473287702002	-223.5058874203713	862.5077398846538	690.5893234564594	-169.5170329975254	812.6905091960639	553.8452737724887	-189.6713765803592	nan	nan	nan	777.7553601297144	452.1791681077615	-231.9401998306964	635.1370025941598	475.2970510145364	-192.0373568091191	542.7081036363201	351.7127990830218	-251.591833683157	446.0979901321577	360.7259704819273	-230.3386639390033	nan	nan	nan	444.1919669465747	195.8612523992375	-233.9929992799952	394.9331788441839	235.6875240672011	-210.4321977795803	395.5319867657262	407.4000819905935	-290.0939080878221	
1565	146.252	941.9145541844271	1598.605558059982	-311.5008849000121	862.2025093045373	1346.05320140473	-311.6955133488538	1086.680286095255	1494.555056760038	-325.9384421696574	990.3092112897914	1578.28685665838	-467.8115700454108	1004.641508530344	1583.081229920144	-174.930800250004	1051.159331726229	1068.590647744015	-413.9971997505839	1032.611400359986	1059.745360174671	-206.0477796190034	861.154858017324	1114.171566527252	-347.9224230878577	862.3519270856362	1109.195676277536	-304.5318215921935	995.6874109075003	1145.782622254429	-475.4311040240881	984.8780904217878	1133.682229759114	-163.2224509278603	1032.756725987165	905.6772688731636	-494.7567353517362	1130.626192878196	818.4916509188461	-427.148736420622	1066.817332098624	706.8497962183973	-473.7154011101649	1109.103738010564	582.4458505803566	-453.6289778906079	nan	nan	nan	1179.375335916567	476.4633383987472	-398.4264614447794	1114.161880276489	339.2368747375806	-445.1580213247263	1181.627216727207	245.7517852381579	-378.4678786867368	1143.790264920813	141.3809382166852	-397.7201700842002	nan	nan	nan	1295.91529670786	88.91047294223631	-363.8476192287524	1262.656000800827	49.35309895577211	-396.7018944096415	1076.539836337316	98.08108177178228	-336.2911929408581	946.9427871337143	888.8164159998336	-148.527952635367	1015.723350596683	756.3254565303633	-224.1677617614321	867.0974582233721	686.5913572726234	-168.8644879189953	818.3623208569251	550.58369889152	-189.0831867308576	nan	nan	nan	781.3620381330473	449.8113242324839	-231.0291070791221	639.1258965720542	476.9554098135592	-191.1973471731031	543.6461795539724	355.831778786746	-250.1784104946519	447.3083310003852	367.4783465553722	-228.758667232982	nan	nan	nan	441.741275421275	202.9360555109073	-231.7757501449088	393.4890510869121	243.9600101586454	-208.1883417773881	397.6080163094961	415.146063740519	-288.5639987629321	
1566	146.256	941.9253245346231	1595.883664173359	-311.9381523365373	861.917453518111	1343.360629349828	-312.2109698628851	1086.78577732645	1491.571173720505	-325.8797117320676	990.8963898796607	1575.349257794911	-468.1855988472395	1004.641807806741	1580.215230542566	-174.9928333541209	1051.319585512155	1066.113112764877	-413.9998786200087	1032.836744655221	1057.529647036261	-205.7171729622271	861.0356787045259	1110.575514536807	-347.6648548575931	862.2785769857655	1105.681297213928	-304.2779990935551	995.2616608007104	1142.552542667242	-475.5270607347765	984.4481349264702	1131.203133351224	-162.7523825194331	1032.986856444359	902.7218621032117	-494.7048649037927	1131.218687666333	816.6824802389608	-426.960623801582	1068.01372121585	704.4179088364617	-473.5305998554094	1109.571983462112	579.9047706523941	-453.3989467708158	nan	nan	nan	1178.345708570313	473.3166888613641	-397.9963563150272	1111.74258791751	336.8150800930567	-444.6022005631935	1177.601478296258	242.8418465435963	-377.3544590829715	1138.559703665528	139.2044921525107	-396.520272834831	nan	nan	nan	1289.883503275832	86.24865791382166	-362.6394114889221	1256.164368364042	47.56078022779635	-396.0579808383408	1070.439899056368	96.62760082997268	-335.1710116242541	948.9620939423527	885.735963763794	-148.4112667180044	1018.285562057139	754.2356878091188	-224.7897555476303	871.7187026526842	682.4474246351097	-168.1730129406875	824.1951695650847	547.1772636739967	-188.4403551980157	nan	nan	nan	785.212088400142	447.3830059436264	-230.1342952299235	643.5105338690338	478.3835333158801	-190.2628659310709	545.0717372065596	359.839669447487	-248.7225802058313	449.0838279171533	374.08877201894	-227.1030722396116	nan	nan	nan	439.7580233393538	209.9297271188736	-229.6042386672567	392.5615435009539	252.1396955314917	-205.9666702262833	400.2999331475099	422.8036474862163	-286.9172273391356	
1567	146.26	941.8793113254517	1593.024368871313	-312.401656116763	861.6234507214352	1340.484677961525	-312.723883805608	1086.908950690106	1488.371505776902	-325.7861766756378	991.4671075308758	1572.250498200981	-468.5878234179198	1004.568689405251	1577.199215530026	-175.0315133515705	1051.419336031644	1063.492469109029	-414.01956456149	1033.022209381754	1055.113649306661	-205.39222496462	860.874226879563	1106.763872390983	-347.3685916690445	862.1518113453657	1101.947723415957	-303.994531614264	994.7906332532153	1139.093563386439	-475.6636014369781	984.0087078751357	1128.487445548461	-162.2420176847435	1033.221752730894	899.7314061046328	-494.5481123996533	1131.966428982834	815.061258401427	-426.8592520878406	1069.187013509949	701.9730437571511	-473.2215879056278	1109.986312962972	577.2915749044613	-453.0754996161934	nan	nan	nan	1177.109814778709	469.9947197637384	-397.4550259618225	1108.895812826371	334.3393894193825	-443.9516242038854	1172.869342459916	239.8171871763091	-376.0533508773478	1132.446760658675	137.0426575638376	-395.1690095515321	nan	nan	nan	1282.884165455764	83.62180002614298	-361.4095426669493	1248.684996221092	45.89796756926627	-395.4630337165311	1063.359200758435	95.19783001531388	-333.9426494388377	950.9814707169314	882.4744779469839	-148.263372306534	1020.741631690755	751.9822444924938	-225.3553094679282	876.3605044334279	678.1799167003079	-167.4466727397391	830.1848163744686	543.6417995857157	-187.7409255027957	nan	nan	nan	789.3056887279222	444.9083434767558	-229.2604080021117	648.2825135768223	479.5740104548059	-189.231618363192	546.9850244660422	363.7249810478594	-247.2322350622929	451.4194804549325	380.5330071848592	-225.3823587657479	nan	nan	nan	438.2765337726975	216.8171741105063	-227.473935008184	392.175442899494	260.191167965602	-203.7647947874931	403.5908777827534	430.333559165495	-285.1695370934167	
